<?xml version="1.0" encoding="UTF-8"?>
<svg width="14px" height="16px" viewBox="0 0 14 16" version="1.1" xmlns="http://www.w3.org/2000/svg" xmlns:xlink="http://www.w3.org/1999/xlink">
    <!-- Generator: sketchtool 49.3 (51167) - http://www.bohemiancoding.com/sketch -->
    <title>FC6CB351-F20A-4088-B976-281EE4F1B402</title>
    <desc>Created with sketchtool.</desc>
    <defs></defs>
    <g id="Page-1" stroke="none" stroke-width="1" fill="none" fill-rule="evenodd">
        <g id="Start-3" transform="translate(-757.000000, -925.000000)" fill="#a1c04c">
            <g id="3-copy-3" transform="translate(320.000000, 577.000000)">
                <g id="Group-5" transform="translate(20.000000, 304.000000)">
                    <g id="Group-4" transform="translate(0.000000, 36.000000)">
                        <g id="Group-3-Copy-6" transform="translate(259.000000, 0.000000)">
                            <g id="Group-15" transform="translate(157.000000, 8.000000)">
                                <g id="Page-1" transform="translate(1.000000, 0.000000)">
                                    <path d="M10,0 L10,1 L4.001,1 L4.001,0 L2,0 L2,1 L0,1 L0,16 L14.001,16 L14.001,1 L12,1 L12,0 L10,0 Z M2,4 L4.001,4 L10,4 L12,4 L12,14 L2,14 L2,4 Z" id="Fill-2"></path>
                                    <polygon id="Fill-3" points="3 7 5 7 5 5 3 5"></polygon>
                                    <polygon id="Fill-4" points="6 7 8 7 8 5 6 5"></polygon>
                                    <polygon id="Fill-5" points="9 7 11 7 11 5 9 5"></polygon>
                                    <polygon id="Fill-6" points="3 10 5 10 5 8 3 8"></polygon>
                                    <polygon id="Fill-7" points="6 10 8 10 8 8 6 8"></polygon>
                                    <polygon id="Fill-8" points="9 10 11 10 11 8 9 8"></polygon>
                                    <polygon id="Fill-9" points="3 13 5 13 5 11 3 11"></polygon>
                                    <polygon id="Fill-10" points="6 13 8 13 8 11 6 11"></polygon>
                                </g>
                            </g>
                        </g>
                    </g>
                </g>
            </g>
        </g>
    </g>
</svg>